PathFileType	4	(X/Y/Z)	c:/Users/goper/Files/vsCode/490R/osim_files/C11/C11_SSWS_05.trc
DataRate	CameraRate	NumFrames	NumMarkers	Units                	OrigDataRate	OrigDataStartFrame	OrigNumFrames
120.00	120.00	6	36	mm	120.0	342	1366
                Frame#	Time	LPSI			LASI			LTH1			LTH2			LTH3			LTH4			LLFE			LMFE			LSH1			LSH2			LSH3			LSH4			LLMA			LMMA			LCAL			LMTP			LTOE			LMTP			RPSI			RASI			RTH1			RTH2			RTH3			RTH4			RLFE			RMFE			RSH1			RSH2			RSH3			RSH4			RLMA			RMMA			RCAL			RMTP			RTOE			RMTP		
		X1	Y1	Z1	X2	Y2	Z2	X3	Y3	Z3	X4	Y4	Z4	X5	Y5	Z5	X6	Y6	Z6	X7	Y7	Z7	X8	Y8	Z8	X9	Y9	Z9	X10	Y10	Z10	X11	Y11	Z11	X12	Y12	Z12	X13	Y13	Z13	X14	Y14	Z14	X15	Y15	Z15	X16	Y16	Z16	X17	Y17	Z17	X18	Y18	Z18	X19	Y19	Z19	X20	Y20	Z20	X21	Y21	Z21	X22	Y22	Z22	X23	Y23	Z23	X24	Y24	Z24	X25	Y25	Z25	X26	Y26	Z26	X27	Y27	Z27	X28	Y28	Z28	X29	Y29	Z29	X30	Y30	Z30	X31	Y31	Z31	X32	Y32	Z32	X33	Y33	Z33	X34	Y34	Z34	X35	Y35	Z35	X36	Y36	Z36

342	2.84167	0.00000	0.00000	0.00000	0.00000	0.00000	0.00000	0.00000	0.00000	0.00000	0.00000	0.00000	0.00000	2973.49072	609.11267	395.95932	0.00000	0.00000	0.00000	0.00000	0.00000	0.00000	2748.94653	502.43259	95.83002	0.00000	0.00000	0.00000	2753.15283	581.08582	82.36823	0.00000	0.00000	0.00000	0.00000	0.00000	0.00000	0.00000	0.00000	0.00000	0.00000	0.00000	0.00000	0.00000	0.00000	0.00000	0.00000	0.00000	0.00000	-1148.68298	737.32849	2784.85815	-1206.53784	734.96991	2771.05981	3024.18213	986.35596	172.47853	0.00000	0.00000	0.00000	0.00000	0.00000	0.00000	-1196.48572	735.79120	2720.91357	-1135.16138	734.52777	2741.98340	0.00000	0.00000	0.00000	0.00000	0.00000	0.00000	2738.81543	486.18561	213.25974	3080.57788	329.34821	379.83182	0.00000	0.00000	0.00000	0.00000	0.00000	0.00000	0.00000	0.00000	0.00000	0.00000	0.00000	0.00000	0.00000	0.00000	0.00000	2605.66211	63.17453	202.56606	2415.19824	169.25270	203.35233	0.00000	0.00000	0.00000	0.00000	0.00000	0.00000
343	2.85000	0.00000	0.00000	0.00000	0.00000	0.00000	0.00000	0.00000	0.00000	0.00000	3018.93994	565.70972	376.88840	2968.05273	607.46729	395.80316	0.00000	0.00000	0.00000	0.00000	0.00000	0.00000	2739.76245	501.62766	96.94028	0.00000	0.00000	0.00000	2743.91821	580.08252	83.99039	0.00000	0.00000	0.00000	0.00000	0.00000	0.00000	0.00000	0.00000	0.00000	0.00000	0.00000	0.00000	0.00000	0.00000	0.00000	0.00000	0.00000	0.00000	-1148.72815	737.32306	2784.85254	-1206.51562	734.97229	2771.01514	3016.41504	985.02466	172.61598	0.00000	0.00000	0.00000	0.00000	0.00000	0.00000	-1196.55688	735.75232	2720.93896	-1135.19189	734.51099	2741.98022	0.00000	0.00000	0.00000	0.00000	0.00000	0.00000	2729.41260	485.22507	212.40150	3077.01636	328.58588	379.84256	0.00000	0.00000	0.00000	0.00000	0.00000	0.00000	0.00000	0.00000	0.00000	0.00000	0.00000	0.00000	0.00000	0.00000	0.00000	2590.37256	62.53157	203.97762	2404.05957	175.00720	204.52449	0.00000	0.00000	0.00000	0.00000	0.00000	0.00000
344	2.85833	0.00000	0.00000	0.00000	0.00000	0.00000	0.00000	0.00000	0.00000	0.00000	3013.63452	564.99115	376.92096	2962.24658	605.87720	395.53607	0.00000	0.00000	0.00000	0.00000	0.00000	0.00000	2728.74463	501.79117	97.98462	0.00000	0.00000	0.00000	2733.44214	579.98407	85.54321	0.00000	0.00000	0.00000	0.00000	0.00000	0.00000	0.00000	0.00000	0.00000	0.00000	0.00000	0.00000	0.00000	0.00000	0.00000	0.00000	0.00000	0.00000	-1148.75354	737.30493	2784.87305	-1206.57825	734.93427	2771.08276	3008.70190	983.70142	172.86238	0.00000	0.00000	0.00000	0.00000	0.00000	0.00000	-1196.59619	735.73773	2720.95361	-1135.24805	734.49634	2742.00806	0.00000	0.00000	0.00000	0.00000	0.00000	0.00000	2718.90894	484.91193	214.87761	3073.70850	328.93585	379.49402	0.00000	0.00000	0.00000	0.00000	0.00000	0.00000	0.00000	0.00000	0.00000	0.00000	0.00000	0.00000	0.00000	0.00000	0.00000	2577.79126	61.39609	205.41409	2394.58887	178.37328	205.79797	0.00000	0.00000	0.00000	0.00000	0.00000	0.00000
345	2.86667	0.00000	0.00000	0.00000	0.00000	0.00000	0.00000	0.00000	0.00000	0.00000	3007.98877	564.11945	376.88614	2956.09814	604.20898	395.13986	0.00000	0.00000	0.00000	0.00000	0.00000	0.00000	2716.75415	502.58127	98.93574	0.00000	0.00000	0.00000	2721.98291	580.51422	87.01225	0.00000	0.00000	0.00000	0.00000	0.00000	0.00000	0.00000	0.00000	0.00000	0.00000	0.00000	0.00000	0.00000	0.00000	0.00000	0.00000	0.00000	0.00000	-1148.72083	737.30658	2784.84863	-1206.61316	734.90936	2771.09204	3000.95874	982.36584	173.18439	0.00000	0.00000	0.00000	0.00000	0.00000	0.00000	-1196.51587	735.73462	2720.91846	-1135.14734	734.51776	2741.98462	0.00000	0.00000	0.00000	0.00000	0.00000	0.00000	2707.19434	485.25839	216.01392	3069.30566	327.75635	379.80573	0.00000	0.00000	0.00000	0.00000	0.00000	0.00000	0.00000	0.00000	0.00000	0.00000	0.00000	0.00000	0.00000	0.00000	0.00000	2567.81396	60.22707	207.01251	2385.81372	179.03076	207.18373	0.00000	0.00000	0.00000	0.00000	0.00000	0.00000
346	2.87500	0.00000	0.00000	0.00000	0.00000	0.00000	0.00000	0.00000	0.00000	0.00000	3002.00903	563.13446	376.68716	2948.01880	599.87946	393.96094	0.00000	0.00000	0.00000	0.00000	0.00000	0.00000	2704.52295	503.62665	100.19138	0.00000	0.00000	0.00000	2710.49121	582.05145	87.94530	0.00000	0.00000	0.00000	0.00000	0.00000	0.00000	0.00000	0.00000	0.00000	0.00000	0.00000	0.00000	0.00000	0.00000	0.00000	0.00000	0.00000	0.00000	-1148.62109	737.32941	2784.82837	-1206.51599	734.91779	2771.06470	2993.09204	980.99634	173.66000	0.00000	0.00000	0.00000	0.00000	0.00000	0.00000	-1196.50781	735.72583	2720.92822	-1135.12488	734.50037	2741.97827	0.00000	0.00000	0.00000	0.00000	0.00000	0.00000	2695.08838	486.06860	216.89998	3065.29834	327.99637	379.36740	0.00000	0.00000	0.00000	0.00000	0.00000	0.00000	0.00000	0.00000	0.00000	0.00000	0.00000	0.00000	0.00000	0.00000	0.00000	2560.14209	59.17181	208.76816	2377.31201	176.92757	208.57156	2385.25537	178.85332	153.07642	0.00000	0.00000	0.00000
347	2.88333	0.00000	0.00000	0.00000	0.00000	0.00000	0.00000	0.00000	0.00000	0.00000	2995.75415	562.04742	376.40979	2941.37524	598.25513	393.43082	0.00000	0.00000	0.00000	0.00000	0.00000	0.00000	2692.31177	504.43634	101.22080	0.00000	0.00000	0.00000	2700.28662	586.32129	88.25207	0.00000	0.00000	0.00000	0.00000	0.00000	0.00000	0.00000	0.00000	0.00000	0.00000	0.00000	0.00000	0.00000	0.00000	0.00000	0.00000	0.00000	0.00000	-1148.64417	737.34143	2784.84277	-1206.51343	734.93256	2771.08643	2985.05640	979.66339	174.09654	0.00000	0.00000	0.00000	0.00000	0.00000	0.00000	-1196.47437	735.74335	2720.91748	-1135.10571	734.50159	2741.98242	0.00000	0.00000	0.00000	0.00000	0.00000	0.00000	2682.85034	487.20465	215.84776	3060.33447	326.79355	379.45932	0.00000	0.00000	0.00000	0.00000	0.00000	0.00000	0.00000	0.00000	0.00000	0.00000	0.00000	0.00000	0.00000	0.00000	0.00000	2554.12817	58.05867	210.41542	2368.95312	172.38365	209.93466	2377.38184	174.96304	154.57814	0.00000	0.00000	0.00000
